<svg xmlns="http://www.w3.org/2000/svg" viewBox="0 0 578.46 249.33"><defs><style>.cls-1{font-size:76.5px;}.cls-1,.cls-3,.cls-5,.cls-6,.cls-8{fill:#fff;}.cls-1,.cls-3{font-family:NeverSurrender, Never Surrender;}.cls-2{letter-spacing:-0.24em;}.cls-3{font-size:66.5px;}.cls-4{fill:#eded11;}.cls-6{opacity:0.6;}.cls-10,.cls-11,.cls-12,.cls-13,.cls-7,.cls-9{fill:none;stroke:#fff;}.cls-10,.cls-7,.cls-9{stroke-miterlimit:10;}.cls-11,.cls-7{stroke-width:3px;}.cls-8{opacity:0.71;}.cls-10,.cls-11,.cls-12,.cls-13,.cls-9{stroke-linecap:round;}.cls-12,.cls-9{stroke-width:2px;}.cls-11,.cls-12,.cls-13{stroke-linejoin:round;}.cls-13{stroke-width:5px;}</style></defs><title>KR2_logo</title><g id="Layer_2" data-name="Layer 2"><g id="Layer_1-2" data-name="Layer 1"><text class="cls-1" transform="translate(210.88 130.88)">K<tspan class="cls-2" x="57.38" y="0">AV</tspan><tspan x="135.38" y="0">ANOZ</tspan></text><text class="cls-3" transform="translate(210.88 199.65)">ROBOTICs</text><path class="cls-4" d="M138.9,215c12.42-19.1,22.89-46.89,25.64-59.14,2.8-12.45,9.1-57.56,9.1-57.56l.09-1c1.1-.37,2-.63,2.72-.83a.57.57,0,0,1,.07.33l-6,49.25A125.71,125.71,0,0,1,138.9,215Z"/><path class="cls-5" d="M81.91,77.08,64.62,132a69.43,69.43,0,0,0-2.5,30.71c2.45,17.12,6.47,45.56,17,57.74a4.85,4.85,0,0,0,8.48-3.68h0A184.44,184.44,0,0,1,117.93,95.47h0S106.8,93.26,81.91,77.08Z"/><path class="cls-6" d="M74,170.22l.06,13a47,47,0,0,0,.55,6.91c.72,4.58,2,13,3.36,12.62l-.29-2A124.58,124.58,0,0,1,77,172.41h0S76.19,172.5,74,170.22Z"/><path class="cls-7" d="M176,96.19a.59.59,0,0,1,.41.16l.06.08a.57.57,0,0,1,.07.33l-6,49.25a125.71,125.71,0,0,1-31.59,69c-1.78,2-3.64,3.9-5.56,5.77l-11.78,11.42a11.09,11.09,0,0,0-3.1,5.52,11.31,11.31,0,0,0,0,4.88,4.29,4.29,0,0,1-4.43,5.24l-24.49-1.28a.12.12,0,0,1-.08,0h0l-.08,0-22.68-9.32a4.31,4.31,0,0,1-1.75-6.65,11.09,11.09,0,0,0,1.65-10.71l-5.76-15.36A125.66,125.66,0,0,1,59.22,121L74.86,73.91a.5.5,0,0,1,.72-.28"/><path class="cls-8" d="M113.74,225.76a3,3,0,0,1-5-3.27c7.23-16.43,19.12-41.57,27.38-49.66C147.87,161.35,158.66,177.49,113.74,225.76Z"/><line class="cls-9" x1="66.52" y1="226.48" x2="78.35" y2="231.73"/><line class="cls-10" x1="65.76" y1="229.85" x2="71.68" y2="232.48"/><circle class="cls-5" cx="79.65" cy="236.06" r="2.21"/><circle class="cls-6" cx="75.15" cy="165.31" r="2.45"/><path class="cls-4" d="M150.72,21.19s27,17.65,20.21,51.38l4.17,7.62-6.51,35,5.31-1.72,7.07-35-4.68-6.5S184.19,37.39,150.72,21.19Z"/><path class="cls-5" d="M84,67.72,77.47,96.81s18,16.2,35.8,19.38l6.89-30.62A92.59,92.59,0,0,1,84,67.72Z"/><path class="cls-5" d="M138,18.32s-13.41,4.78-9.85,15.31-4.56,36.79-4.56,36.79l-2,9.06s-28.88-11-36.24-17.41l8.23-6.84S100.63,17.87,138,18.32Z"/><path class="cls-11" d="M70.13,90.32,77.91,55.7s37.27,40,103,23.14l-7.78,34.62S120,137.9,70.13,90.32Z"/><path class="cls-12" d="M180.87,78.84l-5-7.53s-46.15,15.34-88.41-20.9L77.91,55.7"/><path class="cls-11" d="M172.72,40.75,182,44.13l1.33,20.07-7.44,7.11C181.69,21.43,141.82,15,141.82,15,98.89,8.48,87.47,50.41,87.47,50.41L83,40.23,93.39,24,103,25.21"/><circle class="cls-5" cx="145.67" cy="7.85" r="7.85"/><ellipse class="cls-4" cx="136.36" cy="100.9" rx="10.87" ry="7.47" transform="translate(8.01 211.81) rotate(-77.33)"/><ellipse class="cls-4" cx="106.73" cy="94.24" rx="10.87" ry="7.47" transform="translate(-8.62 177.7) rotate(-77.33)"/><ellipse class="cls-5" cx="91.12" cy="34.22" rx="6.15" ry="1.89" transform="translate(10.32 88.49) rotate(-54.47)"/><ellipse class="cls-5" cx="179.48" cy="54.86" rx="1.66" ry="6.15" transform="translate(-4.24 16.54) rotate(-5.21)"/><path class="cls-5" d="M95.24,223.42a7.86,7.86,0,0,1-7.1,6.33,22.51,22.51,0,0,1-11.76-2.64s15.34,5.75,15.25,9.21A26.28,26.28,0,0,1,103,235.05l7,.59S93.32,232.53,95.24,223.42Z"/><path class="cls-6" d="M96.75,215.56l21.43-85.39S110.05,187.89,96.75,215.56Z"/><line class="cls-11" x1="165.78" y1="170.34" x2="175.34" y2="200.11"/><line class="cls-11" x1="55.34" y1="135.76" x2="33" y2="101.67"/><polyline class="cls-13" points="2.5 98.3 32.39 100.32 40.24 89.47 35.66 71.6"/><polyline class="cls-13" points="198.25 225.96 189.66 206.31 174.31 197.49 162.9 219.31 175.7 222.26"/></g></g></svg>